<?xml version="1.0" encoding="UTF-8"?>
<svg version="1.1" xmlns="http://www.w3.org/2000/svg" viewBox="310 390 400 255">
<path d="M0 0 C2.4375 2.1875 2.4375 2.1875 5 5 C6.66084938 6.67246372 8.3286186 8.33806144 10 10 C11.11101162 11.11034244 12.22167114 12.22103728 13.33203125 13.33203125 C13.90244141 13.90244141 14.47285156 14.47285156 15.06054688 15.06054688 C19.03027344 19.03027344 19.03027344 19.03027344 23 23 C23.07347656 21.84371094 23.07347656 21.84371094 23.1484375 20.6640625 C23.22320313 19.66117187 23.29796875 18.65828125 23.375 17.625 C23.44460938 16.62726563 23.51421875 15.62953125 23.5859375 14.6015625 C24 12 24 12 26 10 C28.70922801 9.80147898 31.29303179 9.72160523 34 9.75 C35.10601563 9.73839844 35.10601563 9.73839844 36.234375 9.7265625 C41.7466804 9.7466804 41.7466804 9.7466804 44 12 C44.17602539 15.11352539 44.17602539 15.11352539 44.09765625 19.09765625 C44.09358726 20.55403208 44.0917069 22.01041536 44.09179688 23.46679688 C44.08373705 25.75651857 44.06301116 28.0427853 44.00366211 30.33178711 C43.63665737 39.54775657 43.63665737 39.54775657 46.91210938 47.9296875 C49.16388859 50.19443992 51.43736611 52.1003308 54 54 C55.46654437 55.28233634 56.92627204 56.57256912 58.375 57.875 C59.00148438 58.40867187 59.62796875 58.94234375 60.2734375 59.4921875 C64.97176154 63.59524877 64.97176154 63.59524877 65.1875 66.6875 C65.125625 67.450625 65.06375 68.21375 65 69 C63.35 69 61.7 69 60 69 C52.575 61.575 52.575 61.575 45 54 C44.67 79.41 44.34 104.82 44 131 C47.96 131 51.92 131 56 131 C57 132 57 132 57.0625 134.5625 C57.041875 135.366875 57.02125 136.17125 57 137 C43.58774207 137.0231207 30.17548883 137.04091369 16.76321507 137.05181217 C10.53606528 137.0570416 4.30892908 137.06414033 -1.91821289 137.07543945 C-7.92226865 137.08626621 -13.92631129 137.09227638 -19.93037605 137.09487724 C-22.2266161 137.09673188 -24.52285539 137.10035321 -26.81908989 137.10573006 C-30.02320814 137.11293768 -33.2272715 137.11399106 -36.43139648 137.11352539 C-37.39092728 137.11712067 -38.35045807 137.12071594 -39.33906555 137.12442017 C-40.20709808 137.1230455 -41.07513062 137.12167084 -41.96946716 137.12025452 C-43.1074206 137.12163721 -43.1074206 137.12163721 -44.268363 137.12304783 C-46 137 -46 137 -47 136 C-47.09436529 133.76070114 -47.11742327 131.5183825 -47.11352539 129.27709961 C-47.11367142 128.5746965 -47.11381744 127.8722934 -47.1139679 127.14860535 C-47.11326872 124.81648722 -47.10547617 122.484448 -47.09765625 120.15234375 C-47.09579208 118.53951562 -47.09436818 116.92668693 -47.09336853 115.31385803 C-47.08954323 111.06084643 -47.07971285 106.80786876 -47.06866455 102.55487061 C-47.05845069 98.2182257 -47.05387096 93.88157533 -47.04882812 89.54492188 C-47.03809059 81.02993231 -47.02101403 72.51497037 -47 64 C-45.34385343 63.61781233 -43.67542976 63.28604898 -42 63 C-41 64 -41 64 -40.87974548 66.66383362 C-40.8830764 68.4458744 -40.8830764 68.4458744 -40.88647461 70.26391602 C-40.88635407 70.92815299 -40.88623354 71.59238997 -40.88610935 72.27675533 C-40.88685824 74.43583921 -40.89448532 76.59483773 -40.90234375 78.75390625 C-40.90335083 80.06999878 -40.90435791 81.38609131 -40.90539551 82.74206543 C-40.91064752 87.68221909 -40.92460861 92.62236037 -40.9375 97.5625 C-40.958125 108.596875 -40.97875 119.63125 -41 131 C-15.26 131 10.48 131 37 131 C37 93.05 37 55.1 37 16 C34.69 16 32.38 16 30 16 C30 22.27 30 28.54 30 35 C26 35 26 35 24.359375 33.71484375 C23.56273437 32.83505859 23.56273437 32.83505859 22.75 31.9375 C20.36620272 29.40755024 17.96889461 27.05469587 15.3125 24.8125 C9.56434567 19.86931403 4.31705256 14.39680835 -1 9 C-3.84731326 10.29277137 -5.88961912 11.64574826 -8.08105469 13.86987305 C-8.65555359 14.4477507 -9.23005249 15.02562836 -9.82196045 15.62101746 C-10.43243225 16.24494888 -11.04290405 16.86888031 -11.671875 17.51171875 C-12.31312317 18.15816849 -12.95437134 18.80461823 -13.61505127 19.47065735 C-15.66484762 21.53824026 -17.70785445 23.61236224 -19.75 25.6875 C-21.77866262 27.74396246 -23.8088256 29.79888319 -25.84210205 31.8507843 C-27.10502666 33.12576559 -28.3652734 34.40340754 -29.62225342 35.68424988 C-33.32316544 39.42633041 -37.16513643 42.92402995 -41.14816284 46.3631134 C-43.63189271 48.55854626 -45.9181732 50.90856754 -48.19921875 53.3125 C-49.09833984 54.24191406 -49.99746094 55.17132813 -50.92382812 56.12890625 C-52.31770093 57.57695786 -53.71136234 59.02531195 -55.09008789 60.48779297 C-56.44576121 61.92192894 -57.82222317 63.33632419 -59.19921875 64.75 C-60.40324341 66.01070312 -60.40324341 66.01070312 -61.6315918 67.296875 C-64 69 -64 69 -66.80004883 68.765625 C-67.88902466 68.38664062 -67.88902466 68.38664062 -69 68 C-68.49122941 63.85817743 -67.45849193 61.9745462 -64.4375 59.125 C-63.47650391 58.20074219 -63.47650391 58.20074219 -62.49609375 57.2578125 C-61.14495114 56.0356522 -59.78744408 54.81975412 -58.39790344 53.64143372 C-52.7662676 48.8406123 -47.56823171 43.64632513 -42.3870163 38.37048531 C-40.82624151 36.78269935 -39.26081298 35.19964092 -37.69390869 33.61790466 C-33.24531736 29.12689537 -28.79985977 24.63290213 -24.37011719 20.12329102 C-21.64624898 17.35098885 -18.91278408 14.58847547 -16.17273712 11.83216667 C-15.13405333 10.78358459 -14.09903667 9.73135672 -13.06780243 8.67544746 C-11.63205415 7.20605779 -10.18442581 5.74944674 -8.73339844 4.29516602 C-7.91369568 3.46356461 -7.09399292 2.6319632 -6.24945068 1.77516174 C-4 0 -4 0 0 0 Z " fill="#555758" transform="translate(514,393)"/>
<path d="M0 0 C1.0725 0.7425 2.145 1.485 3.25 2.25 C4.61125 3.1471875 4.61125 3.1471875 6 4.0625 C11.98399469 9.88027261 13.40862003 16.26907354 13.625 24.375 C13.64815635 32.70423998 11.77696526 38.40534853 6.125 44.56640625 C-0.86853497 51.1700989 -7.155584 52.7584167 -16.63037109 52.74755859 C-23.16514906 52.53908163 -27.95474385 50.86292702 -32.75 46.25 C-39.13088869 38.00023177 -41.89390498 29.6465035 -40.75 19.25 C-38.62088907 11.32001796 -33.30428665 4.17790739 -26.375 -0.25 C-19.00938812 -3.48509228 -7.2527618 -3.48796941 0 0 Z " fill="#F5F5F2" transform="translate(619.75,580.75)"/>
<path d="M0 0 C1.39456452 0.00667256 2.78911118 0.01863093 4.18359375 0.03515625 C5.2499707 0.04192383 5.2499707 0.04192383 6.33789062 0.04882812 C8.09899388 0.06064761 9.86005411 0.07858362 11.62109375 0.09765625 C11.29109375 1.41765625 10.96109375 2.73765625 10.62109375 4.09765625 C9.30109375 4.42765625 7.98109375 4.75765625 6.62109375 5.09765625 C6.62109375 19.28765625 6.62109375 33.47765625 6.62109375 48.09765625 C8.27109375 48.75765625 9.92109375 49.41765625 11.62109375 50.09765625 C11.62109375 51.08765625 11.62109375 52.07765625 11.62109375 53.09765625 C4.69109375 53.09765625 -2.23890625 53.09765625 -9.37890625 53.09765625 C-9.37890625 52.10765625 -9.37890625 51.11765625 -9.37890625 50.09765625 C-7.39890625 49.43765625 -5.41890625 48.77765625 -3.37890625 48.09765625 C-3.04890625 35.55765625 -2.71890625 23.01765625 -2.37890625 10.09765625 C-3.03890625 10.09765625 -3.69890625 10.09765625 -4.37890625 10.09765625 C-4.47945313 10.76023437 -4.58 11.4228125 -4.68359375 12.10546875 C-5.56536392 15.90005273 -7.00077865 19.3923688 -8.50390625 22.97265625 C-8.81231445 23.71427002 -9.12072266 24.45588379 -9.43847656 25.2199707 C-13.40790764 34.67401335 -17.7657119 43.94074338 -22.37890625 53.09765625 C-24.15380859 53.05761719 -24.15380859 53.05761719 -26.37890625 52.09765625 C-27.78221923 49.63681271 -28.8976641 47.33705586 -29.98046875 44.73828125 C-30.30300629 43.99688904 -30.62554382 43.25549683 -30.95785522 42.49163818 C-31.98731639 40.11611217 -32.99566585 37.73225534 -34.00390625 35.34765625 C-34.69005259 33.75592621 -35.37753739 32.16477243 -36.06640625 30.57421875 C-38.57051949 24.77425114 -41.03243798 18.96382693 -43.37890625 13.09765625 C-43.37890625 24.64765625 -43.37890625 36.19765625 -43.37890625 48.09765625 C-41.39890625 49.08765625 -39.41890625 50.07765625 -37.37890625 51.09765625 C-37.37890625 52.08765625 -37.37890625 53.07765625 -37.37890625 54.09765625 C-43.64890625 54.09765625 -49.91890625 54.09765625 -56.37890625 54.09765625 C-56.37890625 52.77765625 -56.37890625 51.45765625 -56.37890625 50.09765625 C-54.39890625 49.43765625 -52.41890625 48.77765625 -50.37890625 48.09765625 C-50.37890625 33.90765625 -50.37890625 19.71765625 -50.37890625 5.09765625 C-52.85390625 4.10765625 -52.85390625 4.10765625 -55.37890625 3.09765625 C-55.37890625 2.43765625 -55.37890625 1.77765625 -55.37890625 1.09765625 C-50.09890625 1.09765625 -44.81890625 1.09765625 -39.37890625 1.09765625 C-34.59876781 11.17751339 -30.06146815 21.33517765 -25.66845703 31.59008789 C-25.04946533 33.02856079 -25.04946533 33.02856079 -24.41796875 34.49609375 C-24.04881348 35.35895996 -23.6796582 36.22182617 -23.29931641 37.11083984 C-22.53788354 39.05347067 -22.53788354 39.05347067 -21.37890625 40.09765625 C-20.98960937 39.12570312 -20.6003125 38.15375 -20.19921875 37.15234375 C-16.6531981 28.38117642 -12.91471563 19.71271128 -9.00390625 11.09765625 C-8.56320801 10.12425293 -8.12250977 9.15084961 -7.66845703 8.14794922 C-7.2557959 7.24447754 -6.84313477 6.34100586 -6.41796875 5.41015625 C-6.04881348 4.60191406 -5.6796582 3.79367187 -5.29931641 2.9609375 C-3.75772239 -0.15987034 -3.81500864 0.11026037 0 0 Z " fill="#4C4D4E" transform="translate(370.37890625,578.90234375)"/>
<path d="M0 0 C1.0725 0.7425 2.145 1.485 3.25 2.25 C4.61125 3.1471875 4.61125 3.1471875 6 4.0625 C11.98399469 9.88027261 13.40862003 16.26907354 13.625 24.375 C13.64815635 32.70423998 11.77696526 38.40534853 6.125 44.56640625 C-0.86853497 51.1700989 -7.155584 52.7584167 -16.63037109 52.74755859 C-23.16514906 52.53908163 -27.95474385 50.86292702 -32.75 46.25 C-39.13088869 38.00023177 -41.89390498 29.6465035 -40.75 19.25 C-38.62088907 11.32001796 -33.30428665 4.17790739 -26.375 -0.25 C-19.00938812 -3.48509228 -7.2527618 -3.48796941 0 0 Z M-27.2265625 7.1328125 C-32.10893456 13.91805778 -31.27939724 22.29223507 -30.75 30.25 C-29.63939599 36.77363193 -26.72475548 41.8590789 -21.75 46.25 C-17.30148128 49.0130551 -12.83131574 48.76456362 -7.75 48.25 C-3.0163255 46.58444786 -0.48093326 44.44393323 2.25 40.25 C5.39379174 32.53137153 5.6973351 21.72423269 3.25 13.6875 C0.39196623 8.77525445 -3.62332205 4.81333898 -8.75 2.25 C-16.48017912 1.20345267 -21.48764692 1.68447492 -27.2265625 7.1328125 Z " fill="#4D4E50" transform="translate(619.75,580.75)"/>
<path d="M0 0 C11.98170843 -1.36308762 11.98170843 -1.36308762 16.39453125 1.6171875 C18.45512596 3.97575009 20.22670156 6.41894909 22 9 C23.42380427 10.76116088 24.86191526 12.51083061 26.3125 14.25 C27.05371094 15.16523437 27.79492188 16.08046875 28.55859375 17.0234375 C30.3227491 19.1742957 32.1011532 21.30167889 33.91015625 23.4140625 C34.40281982 23.98995117 34.8954834 24.56583984 35.40307617 25.15917969 C36.35981124 26.27444492 37.31945596 27.38722297 38.2824707 28.49707031 C40.9247894 31.58066154 42.88207512 34.4701252 45 38 C45 27.11 45 16.22 45 5 C43.02 4.01 41.04 3.02 39 2 C39 1.34 39 0.68 39 0 C44.94 0 50.88 0 57 0 C57 0.99 57 1.98 57 3 C55.02 3.66 53.04 4.32 51 5 C50.67 20.51 50.34 36.02 50 52 C44.27847056 50.85569411 42.69669462 48.91501691 39.25 44.625 C38.72414307 43.99013672 38.19828613 43.35527344 37.65649414 42.70117188 C36.09342823 40.80942721 34.5464692 38.90531558 33 37 C32.20980469 36.04867187 31.41960938 35.09734375 30.60546875 34.1171875 C24.59310487 26.85901849 18.80621154 19.42313121 13 12 C13 23.55 13 35.1 13 47 C15.31 47.99 17.62 48.98 20 50 C20 50.99 20 51.98 20 53 C13.73 53 7.46 53 1 53 C1 51.68 1 50.36 1 49 C2.98 48.34 4.96 47.68 7 47 C7.33 33.14 7.66 19.28 8 5 C5.36 4.34 2.72 3.68 0 3 C0 2.01 0 1.02 0 0 Z " fill="#4F5051" transform="translate(655,580)"/>
<path d="M0 0 C1.65 0 3.3 0 5 0 C5.68775513 1.69358643 5.68775513 1.69358643 6.3894043 3.42138672 C8.10934411 7.65366118 9.83455586 11.88377043 11.5612793 16.11328125 C12.30455689 17.93594679 13.04644833 19.7591783 13.78686523 21.58300781 C18.77152813 37.68022417 18.77152813 37.68022417 28.1394043 50.24169922 C28.75340088 50.49193848 29.36739746 50.74217773 30 51 C30 51.66 30 52.32 30 53 C23.4 53 16.8 53 10 53 C10 52.01 10 51.02 10 50 C11.98 49.505 11.98 49.505 14 49 C13.19698181 44.02128725 11.65530916 39.96592747 10 35 C3.73 35.33 -2.54 35.66 -9 36 C-9.66 37.4025 -10.32 38.805 -11 40.25 C-11.37125 41.03890625 -11.7425 41.8278125 -12.125 42.640625 C-13.23181252 45.2056657 -13.23181252 45.2056657 -13 49 C-11.68 49.33 -10.36 49.66 -9 50 C-9 50.99 -9 51.98 -9 53 C-14.28 53 -19.56 53 -25 53 C-25 52.34 -25 51.68 -25 51 C-24.01 51 -23.02 51 -22 51 C-14.28418161 35.99062194 -8.28553029 20.05588338 -1.99633789 4.41992188 C-1 2 -1 2 0 0 Z " fill="#4D4F4F" transform="translate(428,579)"/>
<path d="M0 0 C12.33494227 0.93093904 23.63142574 5.62022816 31.7734375 15.05859375 C35.3213983 20.67431515 35.35909767 26.63344197 35.65625 33.07421875 C35.79777131 36.1882965 35.79777131 36.1882965 38 39 C37.625 41.1875 37.625 41.1875 37 43 C35.125 42.6875 35.125 42.6875 33 42 C32.34 41.01 31.68 40.02 31 39 C28.38660848 38.37967228 28.38660848 38.37967228 25.375 38.125 C17.16400571 36.91692309 11.52147181 33.60012847 6.38671875 27.05859375 C0.39558871 18.16471901 -0.6985651 10.63371322 0 0 Z " fill="#585859" transform="translate(493,464)"/>
<path d="M0 0 C1.65 0.33 3.3 0.66 5 1 C5 23.44 5 45.88 5 69 C10.10210937 68.97679687 15.20421875 68.95359375 20.4609375 68.9296875 C23.68750507 68.91947202 26.91405278 68.90984436 30.140625 68.90234375 C35.26534144 68.89037435 40.38998663 68.87619377 45.51464844 68.84912109 C49.64488126 68.82743762 53.77503769 68.81544091 57.90532303 68.81024551 C59.48343738 68.80654165 61.06154741 68.7993092 62.63962936 68.78853989 C64.84496951 68.77408451 67.04999142 68.77201952 69.25537109 68.77294922 C70.51223724 68.768508 71.76910339 68.76406677 73.0640564 68.75949097 C76 69 76 69 78 71 C77.34 71 76.68 71 76 71 C76 71.99 76 72.98 76 74 C66.10810624 74.02312428 56.21621886 74.04091552 46.32430363 74.05181217 C41.7315736 74.05704082 37.138862 74.06413812 32.54614258 74.07543945 C28.11766312 74.086269 23.68920144 74.09227698 19.26070976 74.09487724 C17.56734372 74.09673137 15.87397871 74.10035175 14.18062019 74.10573006 C11.81708768 74.1129414 9.45362955 74.1139909 7.09008789 74.11352539 C6.38302704 74.11712067 5.67596619 74.12071594 4.94747925 74.12442017 C0.11405216 74.11405216 0.11405216 74.11405216 -1 73 C-1.0996392 70.76612794 -1.12799795 68.52906141 -1.12939453 66.29296875 C-1.13114685 65.59217194 -1.13289917 64.89137512 -1.13470459 64.16934204 C-1.13912266 61.84203651 -1.13618529 59.51480636 -1.1328125 57.1875 C-1.13348555 55.57706691 -1.13445559 53.96663391 -1.13571167 52.35620117 C-1.13718858 48.97671545 -1.13503431 45.5972561 -1.13037109 42.21777344 C-1.1246738 37.87623495 -1.12795285 33.53475827 -1.13394356 29.19322205 C-1.13754936 25.86649099 -1.1364105 22.5397747 -1.13381577 19.21304321 C-1.13314655 17.61178582 -1.13397474 16.0105271 -1.13629532 14.40927124 C-1.13882216 12.17515489 -1.13498085 9.94114 -1.12939453 7.70703125 C-1.12859894 6.4331958 -1.12780334 5.15936035 -1.12698364 3.84692383 C-1 1 -1 1 0 0 Z " fill="#4C4E4E" transform="translate(468,456)"/>
<path d="M0 0 C0.70253906 -0.00322266 1.40507813 -0.00644531 2.12890625 -0.00976562 C6.16038408 0.03214955 8.17453817 0.46226908 11.875 2.3125 C11.875 6.2725 11.875 10.2325 11.875 14.3125 C10.885 14.3125 9.895 14.3125 8.875 14.3125 C8.441875 13.19875 8.00875 12.085 7.5625 10.9375 C6.17588881 7.13737666 6.17588881 7.13737666 2.875 5.3125 C0.46349742 4.99587561 0.46349742 4.99587561 -2.125 5.0625 C-3.424375 5.05476562 -3.424375 5.05476562 -4.75 5.046875 C-7.390795 5.15835448 -7.390795 5.15835448 -10.125 7.3125 C-10.7421457 11.40033033 -10.7421457 11.40033033 -10.125 15.3125 C-6.06514401 20.26598653 -1.19727191 22.56439855 4.43554688 25.2734375 C9.28472648 27.71021117 12.38606233 30.33462466 14.875 35.3125 C15.52836732 40.7572277 14.3905482 43.89117284 11.65234375 48.41796875 C7.93863048 52.37654223 4.02163782 54.4893513 -1.3515625 54.7734375 C-2.81796711 54.76558176 -4.28439989 54.73669859 -5.75 54.6875 C-6.48734375 54.68621094 -7.2246875 54.68492187 -7.984375 54.68359375 C-12.37613062 54.61275898 -14.93589739 53.98814104 -19.125 52.3125 C-19.125 47.6925 -19.125 43.0725 -19.125 38.3125 C-18.135 38.3125 -17.145 38.3125 -16.125 38.3125 C-15.733125 39.570625 -15.34125 40.82875 -14.9375 42.125 C-13.85076319 44.96762176 -13.22858978 46.21778934 -10.9375 48.3125 C-6.03224291 50.05659141 -1.93021403 50.1574938 2.8125 47.9375 C5.47628306 45.83876183 5.79133293 44.85035974 6.3125 41.5 C6.15892806 38.17079855 6.15892806 38.17079855 3.6875 35.875 C-0.54473469 32.71858516 -5.38376653 30.487655 -10.1015625 28.15625 C-13.87756452 25.85357177 -16.15290312 23.25669377 -18.125 19.3125 C-18.61933314 14.28002656 -18.94349917 9.82357539 -16.5 5.3125 C-11.30620655 0.9387792 -6.67428083 -0.15478388 0 0 Z " fill="#505152" transform="translate(542.125,578.6875)"/>
<path d="M0 0 C6.93 0 13.86 0 21 0 C21 0.99 21 1.98 21 3 C19.02 3.66 17.04 4.32 15 5 C15 18.86 15 32.72 15 47 C16.98 47.99 18.96 48.98 21 50 C21 50.66 21 51.32 21 52 C14.07 52 7.14 52 0 52 C0 51.34 0 50.68 0 50 C1.98 49.34 3.96 48.68 6 48 C5.67 33.48 5.34 18.96 5 4 C3.35 3.67 1.7 3.34 0 3 C0 2.01 0 1.02 0 0 Z " fill="#474949" transform="translate(478,580)"/>
<path d="M0 0 C2.97202752 2.97202752 4.10156928 6.58867814 5.6875 10.4375 C6.02072266 11.21416016 6.35394531 11.99082031 6.69726562 12.79101562 C7.16229492 13.9134668 7.16229492 13.9134668 7.63671875 15.05859375 C7.92248779 15.74236084 8.20825684 16.42612793 8.50268555 17.13061523 C9 19 9 19 8 22 C8.99 22.33 9.98 22.66 11 23 C10.505 24.485 10.505 24.485 10 26 C10 25.34 10 24.68 10 24 C3.73 24.33 -2.54 24.66 -9 25 C-9.66 26.4025 -10.32 27.805 -11 29.25 C-11.37125 30.03890625 -11.7425 30.8278125 -12.125 31.640625 C-13.23181252 34.2056657 -13.23181252 34.2056657 -13 38 C-11.68 38.33 -10.36 38.66 -9 39 C-9 39.99 -9 40.98 -9 42 C-14.28 42 -19.56 42 -25 42 C-25 41.34 -25 40.68 -25 40 C-24.01 40 -23.02 40 -22 40 C-19.92008865 35.89384506 -18.05392019 31.70642269 -16.1875 27.5 C-15.83365234 26.70352051 -15.47980469 25.90704102 -15.11523438 25.08642578 C-12.31573149 18.7620479 -9.61198566 12.40438792 -7 6 C-5.62904376 9.69037278 -6.39989033 11.70883835 -7.9375 15.25 C-8.31777344 16.14203125 -8.69804687 17.0340625 -9.08984375 17.953125 C-9.39019531 18.62859375 -9.69054687 19.3040625 -10 20 C-9.34 20 -8.68 20 -8 20 C-8 19.01 -8 18.02 -8 17 C-7.34 17 -6.68 17 -6 17 C-5.83177734 15.95779297 -5.83177734 15.95779297 -5.66015625 14.89453125 C-4.91553885 11.62967036 -3.75599912 8.76399795 -2.4375 5.6875 C-1.75494141 4.08455078 -1.75494141 4.08455078 -1.05859375 2.44921875 C-0.70925781 1.64097656 -0.35992187 0.83273437 0 0 Z " fill="#626262" transform="translate(428,590)"/>
<path d="M0 0 C-0.58115374 3.51842786 -1.79607503 5.16255218 -4.31640625 7.64453125 C-4.99896484 8.32193359 -5.68152344 8.99933594 -6.38476562 9.69726562 C-7.46274414 10.74430664 -7.46274414 10.74430664 -8.5625 11.8125 C-9.59987305 12.84213867 -9.59987305 12.84213867 -10.65820312 13.89257812 C-13.96826439 17.15328153 -17.32312894 20.31008189 -20.859375 23.32421875 C-24.15108314 26.16365582 -27.18104761 29.18395819 -30.19921875 32.3125 C-31.09833984 33.24191406 -31.99746094 34.17132813 -32.92382812 35.12890625 C-34.31770093 36.57695786 -35.71136234 38.02531195 -37.09008789 39.48779297 C-38.44576121 40.92192894 -39.82222317 42.33632419 -41.19921875 43.75 C-42.40324341 45.01070313 -42.40324341 45.01070313 -43.6315918 46.296875 C-46 48 -46 48 -48.80004883 47.765625 C-49.88902466 47.38664062 -49.88902466 47.38664062 -51 47 C-50.49122941 42.85817743 -49.45849193 40.9745462 -46.4375 38.125 C-45.47650391 37.20074219 -45.47650391 37.20074219 -44.49609375 36.2578125 C-43.15445024 35.0442445 -41.80646606 33.83676849 -40.42358398 32.67041016 C-32.59010618 26.01606486 -25.51921023 18.55233063 -18.32250977 11.2265625 C-16.52533764 9.39929929 -14.72208368 7.57821737 -12.91796875 5.7578125 C-12.367957 5.19434113 -11.81794525 4.63086975 -11.25126648 4.05032349 C-7.46696218 0.24116801 -5.31642667 -1.64992552 0 0 Z " fill="#4E5153" transform="translate(496,414)"/>
<path d="M0 0 C8.95881675 2.30048948 17.9685469 4.99572377 23.203125 13.15234375 C24.48478324 16.12403173 24.32283038 18.8362623 24 22 C23.29875 21.29875 22.5975 20.5975 21.875 19.875 C21.194375 19.20017578 21.194375 19.20017578 20.5 18.51171875 C19.46350877 17.46712993 18.44353994 16.40597888 17.4375 15.33203125 C16.0136595 13.83343913 14.51010717 12.41162192 13 11 C12.01 11 11.02 11 10 11 C11.37184347 15.06498881 13.22068459 17.67396561 16.125 20.8125 C16.84945312 21.60269531 17.57390625 22.39289063 18.3203125 23.20703125 C18.87460937 23.79871094 19.42890625 24.39039063 20 25 C17.69039165 25.80579669 16.42384638 26.14156812 14.0703125 25.35546875 C7.00958135 21.11619442 3.72756115 15.16185187 0.625 7.6875 C0.0032537 5.01399091 -0.04574878 2.73120217 0 0 Z " fill="#F5F4EF" transform="translate(498,470)"/>
<path d="M0 0 C0.33 0 0.66 0 1 0 C1 5.61 1 11.22 1 17 C1.99 17 2.98 17 4 17 C4 12.71 4 8.42 4 4 C4.66 4.33 5.32 4.66 6 5 C6 17.21 6 29.42 6 42 C7.98 42.99 9.96 43.98 12 45 C12 45.99 12 46.98 12 48 C5.73 48 -0.54 48 -7 48 C-7 46.68 -7 45.36 -7 44 C-5.02 43.34 -3.04 42.68 -1 42 C-0.67 28.14 -0.34 14.28 0 0 Z " fill="#666767" transform="translate(321,585)"/>
<path d="M0 0 C2.71499506 2.71499506 3.7444795 5.9267505 5.125 9.4375 C5.40214844 10.11876953 5.67929687 10.80003906 5.96484375 11.50195312 C7.14842926 14.47840831 8 16.76799028 8 20 C3.05 20 -1.9 20 -7 20 C-6.20111518 15.20669107 -5.24765322 11.63283885 -3.5 7.1875 C-3.0565625 6.04667969 -2.613125 4.90585937 -2.15625 3.73046875 C-1 1 -1 1 0 0 Z " fill="#E9E8E1" transform="translate(428,590)"/>
<path d="M0 0 C5.28 0 10.56 0 16 0 C17.86830571 3.73661142 18.508219 5.03589176 18 9 C16.6875 10.8125 16.6875 10.8125 15 12 C14.01 12 13.02 12 12 12 C12 11.01 12 10.02 12 9 C11.34 9 10.68 9 10 9 C10 13.29 10 17.58 10 22 C9.01 22 8.02 22 7 22 C6.67 16.39 6.34 10.78 6 5 C4.02 4.01 2.04 3.02 0 2 C0 1.34 0 0.68 0 0 Z " fill="#454748" transform="translate(315,580)"/>
<path d="M0 0 C11.4476832 0.86397609 22.74575248 4.97526852 30.5 13.6875 C33 16.68617021 33 16.68617021 33 19 C31.68 18.34 30.36 17.68 29 17 C29 16.34 29 15.68 29 15 C28.01 15 27.02 15 26 15 C25.67 15.66 25.34 16.32 25 17 C24.505 16.4225 24.01 15.845 23.5 15.25 C18.78442263 11.00598037 13.03253505 8.80976052 7 7 C10.01031744 6.06576355 10.86650268 5.95550089 14 7 C14 6.01 14 5.02 14 4 C10.98986476 3.41942884 8.07084142 2.9781823 5 3 C2.01119813 5.2416014 1.98732748 7.06912286 1.3125 10.75 C1.209375 11.8225 1.10625 12.895 1 14 C0.67 14 0.34 14 0 14 C0 9.38 0 4.76 0 0 Z " fill="#5D5D5E" transform="translate(493,464)"/>
<path d="M0 0 C1.42292985 0.39474828 2.84205466 0.80475233 4.25 1.25 C4.25 2.24 4.25 3.23 4.25 4.25 C1.28 3.92 -1.69 3.59 -4.75 3.25 C-2.93318537 10.62386112 -2.93318537 10.62386112 -0.0625 17.625 C1.34291483 20.43582965 1.52321262 22.15359031 1.25 25.25 C-1.39752004 22.67215154 -3.69432065 20.33351902 -5.75 17.25 C-5.75 16.26 -5.75 15.27 -5.75 14.25 C-6.41 14.25 -7.07 14.25 -7.75 14.25 C-9.54554189 4.59896234 -9.54554189 4.59896234 -7.3125 0.8125 C-4.21818594 -1.07427687 -3.4333552 -0.76236706 0 0 Z " fill="#535454" transform="translate(502.75,466.75)"/>
<path d="M0 0 C0.99 0 1.98 0 3 0 C3.391875 1.258125 3.78375 2.51625 4.1875 3.8125 C5.28578716 6.70380479 5.85492603 7.87507519 8.25 9.9375 C11.49531232 11.19137067 14.54572745 11.66134583 18 12 C18 12.33 18 12.66 18 13 C13.545 13.495 13.545 13.495 9 14 C17.54824466 14.15873088 17.54824466 14.15873088 26 13 C23.33574815 15.67838582 21.90829937 16.00846888 18.06640625 16.36328125 C16.56500933 16.36195843 15.06355546 16.34454644 13.5625 16.3125 C12.81162109 16.31572266 12.06074219 16.31894531 11.28710938 16.32226562 C6.71666788 16.27804851 4.49756281 15.79902513 0 14 C0 9.38 0 4.76 0 0 Z " fill="#5F5F5F" transform="translate(523,617)"/>
<path d="M0 0 C0.66 0 1.32 0 2 0 C2.37125 0.94875 2.7425 1.8975 3.125 2.875 C4.73995905 6.25553808 4.73995905 6.25553808 8.1875 7.375 C9.115625 7.58125 10.04375 7.7875 11 8 C11 8.99 11 9.98 11 11 C4.73 11 -1.54 11 -8 11 C-8 9.68 -8 8.36 -8 7 C-7.05125 6.773125 -6.1025 6.54625 -5.125 6.3125 C-1.80676612 5.30916286 -1.80676612 5.30916286 -0.625 2.375 C-0.41875 1.59125 -0.2125 0.8075 0 0 Z " fill="#666868" transform="translate(664,622)"/>
<path d="M0 0 C6.93 0 13.86 0 21 0 C21 0.99 21 1.98 21 3 C18.69 3.66 16.38 4.32 14 5 C13.67 4.01 13.34 3.02 13 2 C11.35 2 9.7 2 8 2 C7.67 17.18 7.34 32.36 7 48 C6.67 48 6.34 48 6 48 C5.67 33.48 5.34 18.96 5 4 C3.35 3.67 1.7 3.34 0 3 C0 2.01 0 1.02 0 0 Z M4 48 C6 49 6 49 6 49 Z " fill="#696A6A" transform="translate(478,580)"/>
<path d="M0 0 C4.95 0 9.9 0 15 0 C14.67 1.32 14.34 2.64 14 4 C12.68 4.33 11.36 4.66 10 5 C9.67 18.86 9.34 32.72 9 47 C8.67 47 8.34 47 8 47 C7.83262234 40.91291842 7.67203843 34.82571052 7.51782227 28.73828125 C7.4643652 26.66629175 7.40903303 24.59434976 7.35180664 22.52246094 C7.26999904 19.54893237 7.19487778 16.57529961 7.12109375 13.6015625 C7.09405869 12.67131256 7.06702362 11.74106262 7.03916931 10.78262329 C7.01907303 9.92188202 6.99897675 9.06114075 6.97827148 8.17431641 C6.95828598 7.41486725 6.93830048 6.65541809 6.91770935 5.87295532 C7 4 7 4 8 2 C5.36 1.67 2.72 1.34 0 1 C0 0.67 0 0.34 0 0 Z " fill="#8D8E8E" transform="translate(367,579)"/>
<path d="M0 0 C2.4375 1.0625 2.4375 1.0625 5 3 C6.29595483 7.66543739 6.21901313 10.69250393 4 15 C3.34 15 2.68 15 2 15 C2 14.34 2 13.68 2 13 C1.34 13 0.68 13 0 13 C-3.05362463 7.62562066 -3.05362463 7.62562066 -2.8125 4.8125 C-2 3 -2 3 0 0 Z " fill="#464747" transform="translate(339,606)"/>
<path d="M0 0 C0.33 1.32 0.66 2.64 1 4 C1.66 4 2.32 4 3 4 C1.25192871 9.46737191 -0.65794081 14.75824848 -3 20 C-3.66 19.34 -4.32 18.68 -5 18 C-5.33 18.66 -5.66 19.32 -6 20 C-6.66 20 -7.32 20 -8 20 C-6.54884678 15.42111848 -4.79418096 11.02350565 -2.875 6.625 C-2.59785156 5.98433594 -2.32070313 5.34367188 -2.03515625 4.68359375 C-1.35899615 3.12143075 -0.67981293 1.56057685 0 0 Z " fill="#525556" transform="translate(363,586)"/>
<path d="M0 0 C0.33 1.32 0.66 2.64 1 4 C3.97 4.495 3.97 4.495 7 5 C7 5.99 7 6.98 7 8 C1.72 8 -3.56 8 -9 8 C-9 7.34 -9 6.68 -9 6 C-8.01 6 -7.02 6 -6 6 C-5.7525 5.38125 -5.505 4.7625 -5.25 4.125 C-3.79371361 1.64931313 -2.62187494 1.04874998 0 0 Z " fill="#4D4F4D" transform="translate(412,624)"/>
<path d="M0 0 C0.66 0 1.32 0 2 0 C2 9.24 2 18.48 2 28 C1.34 28 0.68 28 0 28 C-0.33 28.66 -0.66 29.32 -1 30 C-1.15723924 19.95415947 -0.67192387 10.0188648 0 0 Z " fill="#484A4A" transform="translate(664,594)"/>
<path d="M0 0 C2.43372374 3.65058561 2.46420063 4.66746074 2 9 C0.81866652 12.72890482 -0.55204318 16.36717977 -2 20 C-2.66 19.01 -3.32 18.02 -4 17 C-4.99 17.33 -5.98 17.66 -7 18 C-5.64474464 13.78224268 -4.09799886 9.70578678 -2.375 5.625 C-1.92898438 4.56539062 -1.48296875 3.50578125 -1.0234375 2.4140625 C-0.68570312 1.61742187 -0.34796875 0.82078125 0 0 Z " fill="#5D5D5B" transform="translate(416,608)"/>
<path d="M0 0 C2.97 0 5.94 0 9 0 C9 3.96 9 7.92 9 12 C8.01 12 7.02 12 6 12 C5.566875 10.88625 5.13375 9.7725 4.6875 8.625 C3.30088881 4.82487666 3.30088881 4.82487666 0 3 C0 2.01 0 1.02 0 0 Z " fill="#515151" transform="translate(545,581)"/>
<path d="M0 0 C6.04801071 0.54981916 11.30601106 1.90429574 17 4 C16.34 5.65 15.68 7.3 15 9 C12.36 8.34 9.72 7.68 7 7 C11 6 11 6 14 7 C14 6.01 14 5.02 14 4 C10.98986476 3.41942884 8.07084142 2.9781823 5 3 C2.01119813 5.2416014 1.98732748 7.06912286 1.3125 10.75 C1.209375 11.8225 1.10625 12.895 1 14 C0.67 14 0.34 14 0 14 C0 9.38 0 4.76 0 0 Z " fill="#656465" transform="translate(493,464)"/>
<path d="M0 0 C0.66 0 1.32 0 2 0 C2.6496875 1.36125 2.6496875 1.36125 3.3125 2.75 C4.70517271 5.43218449 6.11112757 7.66139605 8 10 C8.66 9.01 9.32 8.02 10 7 C12.33333333 9.33333333 14.66666667 11.66666667 17 14 C15.68 14 14.36 14 13 14 C13 14.33 13 14.66 13 15 C13 15.66 13 16.32 13 17 C6.5547492 14.16019187 2.66851829 8.37479369 0 2 C0 1.34 0 0.68 0 0 Z " fill="#5F6062" transform="translate(495,481)"/>
<path d="M0 0 C-1.65 0.33 -3.3 0.66 -5 1 C-5 1.66 -5 2.32 -5 3 C-4.34 3.33 -3.68 3.66 -3 4 C-5.31 5.65 -7.62 7.3 -10 9 C-10 8.01 -10 7.02 -10 6 C-11.98 7.32 -13.96 8.64 -16 10 C-16.66 9.67 -17.32 9.34 -18 9 C-5.6875 -2.40625 -5.6875 -2.40625 0 0 Z " fill="#616262" transform="translate(602,580)"/>
<path d="M0 0 C0.99 0 1.98 0 3 0 C3.66 0.99 4.32 1.98 5 3 C5.99 3.33 6.98 3.66 8 4 C8 6.64 8 9.28 8 12 C6.68 12.33 5.36 12.66 4 13 C0.71428571 4.57142857 0.71428571 4.57142857 0 0 Z " fill="#4F4E4F" transform="translate(519,479)"/>
<path d="M0 0 C2.48794878 3.31726504 3.52821942 4.99613909 4.6875 8.75 C5.06455078 9.94882812 5.06455078 9.94882812 5.44921875 11.171875 C5.63097656 11.77515625 5.81273437 12.3784375 6 13 C5.38125 13.28875 4.7625 13.5775 4.125 13.875 C1.86674235 14.93720042 1.86674235 14.93720042 0 17 C0 11.39 0 5.78 0 0 Z " fill="#E9E9E9" transform="translate(326,590)"/>
<path d="M0 0 C4.23910579 1.51396635 5.93638856 4.09387835 8 8 C8.25 11.875 8.25 11.875 8 15 C2.9036877 10.03780118 0.80820582 7.13915142 0 0 Z " fill="#F2F0EB" transform="translate(514,477)"/>
<path d="M0 0 C0.60328125 0.19078125 1.2065625 0.3815625 1.828125 0.578125 C1.828125 1.568125 1.828125 2.558125 1.828125 3.578125 C-0.481875 3.248125 -2.791875 2.918125 -5.171875 2.578125 C-5.171875 1.918125 -5.171875 1.258125 -5.171875 0.578125 C-6.161875 1.073125 -6.161875 1.073125 -7.171875 1.578125 C-7.6402015 4.16417832 -7.6402015 4.16417832 -7.796875 7.140625 C-7.87164062 8.15253906 -7.94640625 9.16445313 -8.0234375 10.20703125 C-8.07242187 10.98949219 -8.12140625 11.77195312 -8.171875 12.578125 C-8.501875 11.918125 -8.831875 11.258125 -9.171875 10.578125 C-9.831875 10.578125 -10.491875 10.578125 -11.171875 10.578125 C-11.6473272 3.44634205 -11.6473272 3.44634205 -9.734375 -0.046875 C-6.1333863 -1.97911284 -3.82547392 -1.06126051 0 0 Z " fill="#444545" transform="translate(505.171875,467.421875)"/>
<path d="M0 0 C0.33 0.99 0.66 1.98 1 3 C1.99 3.33 2.98 3.66 4 4 C0.41800645 6.7679041 -1.53350961 8.08400817 -6.13671875 7.8203125 C-9.12069285 7.30473828 -12.05779772 6.71501796 -15 6 C-15 5.67 -15 5.34 -15 5 C-14.25234375 4.89042969 -13.5046875 4.78085937 -12.734375 4.66796875 C-11.74953125 4.50941406 -10.7646875 4.35085938 -9.75 4.1875 C-8.28820312 3.96126953 -8.28820312 3.96126953 -6.796875 3.73046875 C-3.87677662 2.96781736 -2.25794185 1.96225899 0 0 Z " fill="#5F6163" transform="translate(619,624)"/>
<path d="M0 0 C3.86038436 2.08906965 6.46552611 4.35798817 9.3125 7.6875 C10.00988281 8.49574219 10.70726562 9.30398438 11.42578125 10.13671875 C12.20501953 11.05904297 12.20501953 11.05904297 13 12 C12.67 12.99 12.34 13.98 12 15 C7.71 10.71 3.42 6.42 -1 2 C-0.67 1.34 -0.34 0.68 0 0 Z " fill="#5C5D5D" transform="translate(517,403)"/>
<path d="M0 0 C0.33 0 0.66 0 1 0 C0.47606294 5.86809507 -0.76108858 10.54873741 -3 16 C-3.66 16 -4.32 16 -5 16 C-5 16.99 -5 17.98 -5 19 C-5.66 19 -6.32 19 -7 19 C-6.79503906 18.33613281 -6.59007812 17.67226563 -6.37890625 16.98828125 C-6.10949219 16.10527344 -5.84007812 15.22226562 -5.5625 14.3125 C-5.29566406 13.44238281 -5.02882813 12.57226562 -4.75390625 11.67578125 C-4.03655471 9.12974079 -3.482459 6.5996577 -3 4 C-2.34 4 -1.68 4 -1 4 C-0.67 2.68 -0.34 1.36 0 0 Z " fill="#424444" transform="translate(425,591)"/>
<path d="M0 0 C3.62462885 0.42597134 5.2926498 1.96337959 7.75 4.5625 C8.36359375 5.20316406 8.9771875 5.84382813 9.609375 6.50390625 C10.06828125 6.99761719 10.5271875 7.49132812 11 8 C10.34 8.66 9.68 9.32 9 10 C6.69 8.02 4.38 6.04 2 4 C1.67 4.66 1.34 5.32 1 6 C0.34 4.35 -0.32 2.7 -1 1 C-0.67 0.67 -0.34 0.34 0 0 Z " fill="#636464" transform="translate(508,480)"/>
<path d="M0 0 C0.886875 0.309375 1.77375 0.61875 2.6875 0.9375 C5.87315082 2.03856697 5.87315082 2.03856697 8.75 2.5 C11 3 11 3 13 5 C12.34 5 11.68 5 11 5 C11 5.66 11 6.32 11 7 C5.62694301 6.8238342 5.62694301 6.8238342 3 6 C1 2.9375 1 2.9375 0 0 Z " fill="#4A4C4E" transform="translate(505,493)"/>
<path d="M0 0 C-0.33 0.99 -0.66 1.98 -1 3 C-7.435 3.495 -7.435 3.495 -14 4 C-14 3.34 -14 2.68 -14 2 C-9.35150485 -0.3992233 -5.08913926 -0.19957409 0 0 Z " fill="#464747" transform="translate(611,579)"/>
<path d="M0 0 C0.33 0.66 0.66 1.32 1 2 C-2.70129297 3.69895415 -5.62166396 4.27218737 -9.6875 4.25 C-11.11642578 4.25773438 -11.11642578 4.25773438 -12.57421875 4.265625 C-15 4 -15 4 -17 2 C-8.585 1.01 -8.585 1.01 0 0 Z " fill="#444545" transform="translate(547,628)"/>
<path d="M0 0 C0.33 0 0.66 0 1 0 C1 1.65 1 3.3 1 5 C1.66 5.33 2.32 5.66 3 6 C2.01 7.98 1.02 9.96 0 12 C-1.32 11.34 -2.64 10.68 -4 10 C-2.68 6.7 -1.36 3.4 0 0 Z " fill="#5E5F5F" transform="translate(352,611)"/>
<path d="M0 0 C2.31 0.33 4.62 0.66 7 1 C7 1.33 7 1.66 7 2 C5.02 2 3.04 2 1 2 C1 2.66 1 3.32 1 4 C2.32 4 3.64 4 5 4 C4.67 4.99 4.34 5.98 4 7 C3.43796875 6.68289063 2.8759375 6.36578125 2.296875 6.0390625 C-0.15196317 4.93125475 -2.08387855 4.61024601 -4.75 4.375 C-5.94882812 4.26285156 -5.94882812 4.26285156 -7.171875 4.1484375 C-7.77515625 4.09945312 -8.3784375 4.05046875 -9 4 C-9 3.67 -9 3.34 -9 3 C-6.36 3 -3.72 3 -1 3 C-0.67 2.01 -0.34 1.02 0 0 Z " fill="#706F70" transform="translate(611,579)"/>
<path d="M0 0 C2.95417295 1.3715803 5.52711406 2.86820178 8 5 C8.33 5.99 8.66 6.98 9 8 C7.68 8.33 6.36 8.66 5 9 C0 3.375 0 3.375 0 0 Z " fill="#4E4F51" transform="translate(510,484)"/>
<path d="M0 0 C0.66 0.33 1.32 0.66 2 1 C1.67 1.66 1.34 2.32 1 3 C3.64 3 6.28 3 9 3 C9 3.33 9 3.66 9 4 C7.01432292 4.22786458 5.02864583 4.45572917 3.04296875 4.68359375 C0.80603607 4.97170735 0.80603607 4.97170735 -2 6 C-2 5.01 -2 4.02 -2 3 C-2.66 2.67 -3.32 2.34 -4 2 C-2.125 0.9375 -2.125 0.9375 0 0 Z " fill="#6E6E6E" transform="translate(534,579)"/>
<path d="M0 0 C1.5625 1.25 1.5625 1.25 3 3 C2.6875 5.1875 2.6875 5.1875 2 7 C0.0625 6.6875 0.0625 6.6875 -2 6 C-2.33 5.01 -2.66 4.02 -3 3 C-2.34 3 -1.68 3 -1 3 C-0.67 2.01 -0.34 1.02 0 0 Z " fill="#606162" transform="translate(528,500)"/>
<path d="M0 0 C0.33 0 0.66 0 1 0 C0.67 2.31 0.34 4.62 0 7 C0.66 7.33 1.32 7.66 2 8 C1.01 9.485 1.01 9.485 0 11 C-0.33 10.34 -0.66 9.68 -1 9 C-1.33 9.66 -1.66 10.32 -2 11 C-2.66 11 -3.32 11 -4 11 C-2.7874262 7.27566618 -1.49140021 3.62197194 0 0 Z " fill="#686867" transform="translate(359,595)"/>
<path d="M0 0 C0.66 0 1.32 0 2 0 C3.2890625 1.53125 3.2890625 1.53125 4.625 3.5 C5.07101562 4.1496875 5.51703125 4.799375 5.9765625 5.46875 C6.31429687 5.9740625 6.65203125 6.479375 7 7 C6.67 7.66 6.34 8.32 6 9 C5.38125 8.34 4.7625 7.68 4.125 7 C2.24362573 4.7715451 2.24362573 4.7715451 0 5 C0 3.35 0 1.7 0 0 Z " fill="#EBEBEB" transform="translate(668,593)"/>
<path d="M0 0 C1.97909398 -0.02686553 3.95828971 -0.04633375 5.9375 -0.0625 C7.03964844 -0.07410156 8.14179687 -0.08570313 9.27734375 -0.09765625 C12 0 12 0 13 1 C13.04063832 2.66617115 13.042721 4.33388095 13 6 C11.68 5.67 10.36 5.34 9 5 C9.66 3.68 10.32 2.36 11 1 C7.37 1 3.74 1 0 1 C0 0.67 0 0.34 0 0 Z " fill="#5F6160" transform="translate(558,524)"/>
<path d="M0 0 C4.29 0 8.58 0 13 0 C13 0.33 13 0.66 13 1 C11.95199219 1.07347656 11.95199219 1.07347656 10.8828125 1.1484375 C9.97273438 1.22320313 9.06265625 1.29796875 8.125 1.375 C7.22007812 1.44460938 6.31515625 1.51421875 5.3828125 1.5859375 C2.82058097 1.79568132 2.82058097 1.79568132 1 4 C0.01 4.33 -0.98 4.66 -2 5 C-1.34 3.35 -0.68 1.7 0 0 Z " fill="#F2F3EB" transform="translate(419,614)"/>
<path d="M0 0 C4.62 0 9.24 0 14 0 C14 0.33 14 0.66 14 1 C12.23103898 1.36340286 10.45973374 1.71540883 8.6875 2.0625 C7.70136719 2.25972656 6.71523438 2.45695313 5.69921875 2.66015625 C3 3 3 3 0 2 C0 1.34 0 0.68 0 0 Z " fill="#4C4E4F" transform="translate(315,580)"/>
<path d="M0 0 C0.33 0 0.66 0 1 0 C1 1.65 1 3.3 1 5 C-0.32 5 -1.64 5 -3 5 C-3 6.32 -3 7.64 -3 9 C-3.99 8.67 -4.98 8.34 -6 8 C-6 6.68 -6 5.36 -6 4 C-5.01 4 -4.02 4 -3 4 C-2.67 3.34 -2.34 2.68 -2 2 C-1.67 2.33 -1.34 2.66 -1 3 C-0.67 2.01 -0.34 1.02 0 0 Z " fill="#666565" transform="translate(522,488)"/>
<path d="M0 0 C0.66 0 1.32 0 2 0 C2.45375 0.928125 2.9075 1.85625 3.375 2.8125 C4.9421633 6.03921389 4.9421633 6.03921389 7 9 C6.67 9.99 6.34 10.98 6 12 C5.18071114 10.75443908 4.36984814 9.50333365 3.5625 8.25 C2.88380859 7.20585937 2.88380859 7.20585937 2.19140625 6.140625 C1.0391991 4.07042986 0.45323018 2.31303676 0 0 Z " fill="#696868" transform="translate(495,481)"/>
<path d="M0 0 C0.66 0 1.32 0 2 0 C2 0.99 2 1.98 2 3 C3.32 3.66 4.64 4.32 6 5 C2.98968256 5.93423645 2.13349732 6.04449911 -1 5 C-0.67 3.35 -0.34 1.7 0 0 Z " fill="#555656" transform="translate(509,469)"/>
<path d="M0 0 C0.99 1.32 1.98 2.64 3 4 C-0.3 4 -3.6 4 -7 4 C-7 3.34 -7 2.68 -7 2 C-6.030625 1.855625 -5.06125 1.71125 -4.0625 1.5625 C-1.13513227 1.32437659 -1.13513227 1.32437659 0 0 Z " fill="#454847" transform="translate(663,628)"/>
<path d="M0 0 C0.33 0 0.66 0 1 0 C1.17942163 3.94727588 1.09350689 6.5980513 -1 10 C-1.66 10 -2.32 10 -3 10 C-2.69201674 8.51988629 -2.378482 7.04092675 -2.0625 5.5625 C-1.88847656 4.73878906 -1.71445312 3.91507813 -1.53515625 3.06640625 C-1 1 -1 1 0 0 Z " fill="#464848" transform="translate(416,613)"/>
<path d="M0 0 C2.29013653 3.4352048 2.17842973 4.985331 2 9 C1.34 8.01 0.68 7.02 0 6 C-0.33 6.99 -0.66 7.98 -1 9 C-1.66 9 -2.32 9 -3 9 C-2.01 6.03 -1.02 3.06 0 0 Z " fill="#666665" transform="translate(416,608)"/>
<path d="M0 0 C0.66 0 1.32 0 2 0 C1.67 2.31 1.34 4.62 1 7 C0.01 7.33 -0.98 7.66 -2 8 C-2 6.35 -2 4.7 -2 3 C-1.34 3 -0.68 3 0 3 C0 2.01 0 1.02 0 0 Z " fill="#454948" transform="translate(355,608)"/>
<path d="M0 0 C0.33 1.32 0.66 2.64 1 4 C-0.65 5.32 -2.3 6.64 -4 8 C-4.25 5.6875 -4.25 5.6875 -4 3 C-2 1.1875 -2 1.1875 0 0 Z " fill="#555658" transform="translate(486,422)"/>
<path d="M0 0 C2 1 4 2 6 3 C6 4.65 6 6.3 6 8 C1.125 3.375 1.125 3.375 0 0 Z " fill="#5A5B5D" transform="translate(688,615)"/>
<path d="M0 0 C1.65 1.65 3.3 3.3 5 5 C3.125 5.625 3.125 5.625 1 6 C0.34 5.34 -0.32 4.68 -1 4 C-0.625 1.875 -0.625 1.875 0 0 Z " fill="#E7E4E0" transform="translate(513,490)"/>
<path d="M0 0 C3.24208567 0.35049575 4.61527704 0.56221181 6.8125 3.0625 C7.204375 3.701875 7.59625 4.34125 8 5 C6.68 5 5.36 5 4 5 C4 4.01 4 3.02 4 2 C2.68 2 1.36 2 0 2 C0 1.34 0 0.68 0 0 Z " fill="#404241" transform="translate(612,581)"/>
<path d="M0 0 C0.66 0 1.32 0 2 0 C2 2.31 2 4.62 2 7 C0.68 5.68 -0.64 4.36 -2 3 C-1.34 2.67 -0.68 2.34 0 2 C0 1.34 0 0.68 0 0 Z " fill="#DFDDDA" transform="translate(520,485)"/>
</svg>
